<svg xmlns="http://www.w3.org/2000/svg" width="805" height="600"><rect width="805" height="600" x="0" y="0" fill="#FFFFFF" id="background"/><g id="viz" transform="translate(402.5,300)"><g id="cells"><path d="M-23.78594761128078,34.633356392225195L-24.917401291818486,40.140961731466874L-27.109636873384872,53.266043906583455L-8.665719426430345,141.8047754199429L127.67570179766429,203.78943029776136L137.01470680813034,202.10785452878855L239.27296789763597,84.47318159406383L239.69838989570076,81.12744281135544L240.08681327482637,77.27928269732286L216.43303128754766,-3.4134780637600586L164.49271994383182,-48.60899926156844L116.2439778385073,-64.77939689760326L28.612352996693335,-41.3825877990224L-3.049451270349537,-13.518346666929885z" fill="#e52727" stroke="#FFFFFF" stroke-width="2" id="Fifty Shades of Grey"/><path d="M-260.19615016023084,30.33751967980757L-232.82915947242716,14.350700444897292L-248.4729009362322,-2.7673549196132274L-257.49781770198615,-0.5045614481681722z" fill="#e52727" stroke="#FFFFFF" stroke-width="2" id="Old Fashioned"/><path d="M56.317994332807174,-195.6480971649207L61.669373444126414,-204.6376778428165L55.387876402097504,-207.53727514202328z" fill="#e52727" stroke="#FFFFFF" stroke-width="2" id="The Last Five Years"/><path d="M-262.403215010821,55.56438635763875L-262.8813680674955,61.02970080415356L-258.46927153464634,62.05506954460341z" fill="#e52727" stroke="#FFFFFF" stroke-width="2" id="Boy Meets Girl"/><path d="M-239.44545637298617,-179.21892351761272L-241.86092601251354,-179.23505131145453L-242.76712315864611,-168.87717053454614L-237.2762551328327,-169.1645248866619z" fill="#e52727" stroke="#FFFFFF" stroke-width="2" id="3 Nights in the Desert"/><path d="M56.317994332807174,-195.6480971649207L49.53840080419827,-166.586303489029L122.39594048314041,-91.52355960504069L180.02276913214476,-107.20611668651429L204.2650498269307,-127.30025654271543L206.29990765696937,-131.98456445056718L138.62080649551007,-244.62150389750894L61.669373444126414,-204.6376778428165z" fill="#23171b" stroke="#FFFFFF" stroke-width="2" id="How to Be Single"/><path d="M111.35465523682757,-290L22.29995830327645,-269.44010320771577L55.387876402097504,-207.53727514202328L61.669373444126414,-204.6376778428165L138.6208064955101,-244.62150389750894z" fill="#e52727" stroke="#FFFFFF" stroke-width="2" id="The Choice"/><path d="M-43.58707927815993,245.77044165349585L-36.35625612902525,239.80043395156915L-31.481044229027518,172.59538206480144L-121.11964431640934,212.85982035862565z" fill="#e52727" stroke="#FFFFFF" stroke-width="2" id="Pride and Prejudice and Zombies"/><path d="M-24.917401291818486,40.140961731466874L-33.067162467685556,45.7485515844561L-27.109636873384872,53.266043906583455z" fill="#e52727" stroke="#FFFFFF" stroke-width="2" id="Touched with Fire"/><path d="M261.96157590839266,-39.34799202632216L257.00042464440014,-30.6615770157966L265.57728711427416,-33.330438052268775z" fill="#e52727" stroke="#FFFFFF" stroke-width="2" id="Tumbledown"/><path d="M-237.2762551328327,-169.1645248866619L-242.76712315864611,-168.87717053454614L-243.81530195632345,-156.89643205444855L-235.40272808645867,-164.0284547286244z" fill="#e52727" stroke="#FFFFFF" stroke-width="2" id="Until Forever"/><path d="M-92.39235915860966,-238.43597322411392L-95.53547019998092,-242.2356509786631L-98.55140316520443,-241.539367990426L-94.33410074227156,-235.0109721752509z" fill="#e52727" stroke="#FFFFFF" stroke-width="2" id="Already Tomorrow in Hong Kong"/><path d="M206.29990765696937,-131.98456445056718L204.2650498269307,-127.30025654271543L208.954526963761,-127.56653600482232z" fill="#e52727" stroke="#FFFFFF" stroke-width="2" id="Providence"/><path d="M-60.03000367948022,-129.22093521813366L-94.13669537927557,-166.21216672307588L-235.40272808645867,-164.0284547286244L-243.81530195632345,-156.89643205444855L-256.29617763975443,-14.239370208569994L-248.4729009362322,-2.7673549196132274L-232.82915947242716,14.350700444897292L-194.34404581681355,39.4310349509855L-82.77784360488931,11.39019896805012L-76.04982434233226,4.355460725825597L-56.457772436084475,-27.38846861419376z" fill="#e52727" stroke="#FFFFFF" stroke-width="2" id="Fifty Shades Darker"/><path d="M-60.03000367948022,-129.22093521813366L-56.457772436084475,-27.38846861419376L-3.049451270349537,-13.518346666929885L28.612352996693335,-41.3825877990224L3.3505696775405687,-129.50719572609103z" fill="#e52727" stroke="#FFFFFF" stroke-width="2" id="Rings"/><path d="M164.49271994383182,-48.60899926156844L180.02276913214476,-107.20611668651429L122.39594048314041,-91.52355960504069L116.2439778385073,-64.77939689760326z" fill="#e52727" stroke="#FFFFFF" stroke-width="2" id="The Space Between Us"/><path d="M-194.34404581681355,39.4310349509855L-206.39244813127394,61.380259392592386L-208.5970414712886,66.15487818861095L-200.70224418131014,179.07901090748936L-121.11964431640934,212.85982035862565L-31.481044229027518,172.59538206480144L-8.665719426430345,141.8047754199429L-27.109636873384872,53.266043906583455L-33.067162467685556,45.7485515844561L-39.95329985113427,38.143611685429306L-74.48892556988672,14.432170217803991L-82.77784360488931,11.39019896805012z" fill="#e52727" stroke="#FFFFFF" stroke-width="2" id="Fifty Shades Freed"/><path d="M-257.49781770198615,-0.5045614481681717L-248.4729009362322,-2.7673549196132274L-256.29617763975443,-14.239370208569994z" fill="#23171b" stroke="#FFFFFF" stroke-width="2" id="But Deliver Us from Evil"/><path d="M-32.67828810837793,250.4009487803579L-36.35625612902525,239.80043395156915L-43.58707927815987,245.77044165349582z" fill="#e52727" stroke="#FFFFFF" stroke-width="2" id="The Female Brain"/><path d="M-89.02198391069953,-243.73940777619066L-92.39235915860966,-238.43597322411392L-94.33410074227156,-235.0109721752509L-94.13669537927557,-166.21216672307588L-60.03000367948022,-129.22093521813366L3.3505696775405687,-129.50719572609103L49.53840080419827,-166.586303489029L56.317994332807174,-195.6480971649207L55.387876402097504,-207.53727514202328L22.299958303276462,-269.44010320771577z" fill="#23171b" stroke="#FFFFFF" stroke-width="2" id="What Men Want"/><path d="M-36.35625612902525,239.80043395156915L-32.67828810837788,250.400948780358L60.6112303917917,290L128.4719728040576,211.93514583836645L127.67570179766429,203.78943029776136L-8.665719426430345,141.8047754199429L-31.481044229027518,172.59538206480144z" fill="#e52727" stroke="#FFFFFF" stroke-width="2" id="Isn't It Romantic"/><path d="M3.3505696775405687,-129.50719572609103L28.612352996693335,-41.3825877990224L116.2439778385073,-64.77939689760326L122.39594048314041,-91.52355960504069L49.53840080419827,-166.586303489029z" fill="#e52727" stroke="#FFFFFF" stroke-width="2" id="Happy Death Day 2U"/><path d="M241.45774324774126,81.95988505442747L244.70157903859905,78.22827884241191L240.08681327482637,77.27928269732286L239.69838989570076,81.12744281135544z" fill="#e52727" stroke="#FFFFFF" stroke-width="2" id="Piercing"/><path d="M241.45774324774126,81.95988505442747L239.69838989570076,81.12744281135544L239.27296789763597,84.47318159406383z" fill="#e52727" stroke="#FFFFFF" stroke-width="2" id="Under the Eiffel Tower"/><path d="M-200.70224418131014,179.07901090748936L-208.5970414712886,66.15487818861095L-210.14740403197558,65.4288647027556L-257.20294722336166,63.76052316052013L-263.4151042467143,67.13033324850099L-270.61308414522875,149.4036199627459z" fill="#e52727" stroke="#FFFFFF" stroke-width="2" id="The Photograph"/><path d="M-260.19615016023084,30.337519679807574L-262.403215010821,55.56438635763876L-258.46927153464634,62.05506954460341L-257.20294722336166,63.76052316052013L-210.14740403197558,65.4288647027556L-206.39244813127394,61.380259392592386L-194.34404581681355,39.4310349509855L-232.82915947242716,14.350700444897292z" fill="#e52727" stroke="#FFFFFF" stroke-width="2" id="Downhill"/><path d="M-23.78594761128078,34.633356392225195L-39.95329985113427,38.143611685429306L-33.067162467685556,45.7485515844561L-24.917401291818486,40.140961731466874z" fill="#e52727" stroke="#FFFFFF" stroke-width="2" id="First Lady"/><path d="M-263.4151042467144,67.13033324850102L-257.20294722336166,63.76052316052013L-258.46927153464634,62.05506954460341L-262.8813680674955,61.02970080415356z" fill="#e52727" stroke="#FFFFFF" stroke-width="2" id="Olympic Dreams"/><path d="M137.0147068081303,202.10785452878855L127.67570179766429,203.78943029776136L128.4719728040576,211.93514583836648z" fill="#e52727" stroke="#FFFFFF" stroke-width="2" id="Little Fish"/><path d="M250.68986855992966,-21.615361666760748L257.00042464440014,-30.6615770157966L261.96157590839266,-39.347992026322146L208.954526963761,-127.56653600482232L204.2650498269307,-127.30025654271543L180.02276913214476,-107.20611668651429L164.49271994383182,-48.60899926156844L216.43303128754766,-3.4134780637600586z" fill="#e52727" stroke="#FFFFFF" stroke-width="2" id="Marry Me"/><path d="M-23.78594761128078,34.633356392225195L-3.049451270349537,-13.518346666929885L-56.457772436084475,-27.38846861419376L-76.04982434233226,4.355460725825597L-74.48892556988672,14.432170217803991L-39.95329985113427,38.143611685429306z" fill="#23171b" stroke="#FFFFFF" stroke-width="2" id="Lisa Frankenstein"/><path d="M275.92733914572943,-16.10505881505747L265.5772871142742,-33.33043805226882L257.00042464440014,-30.6615770157966L250.68986855992966,-21.615361666760748z" fill="#23171b" stroke="#FFFFFF" stroke-width="2" id="Scrambled"/><path d="M-95.53547019998092,-242.2356509786631L-92.39235915860966,-238.43597322411392L-89.02198391069953,-243.73940777619066z" fill="#e52727" stroke="#FFFFFF" stroke-width="2" id="Inheritance to Love"/><path d="M-74.48892556988672,14.432170217803991L-76.04982434233226,4.355460725825597L-82.77784360488931,11.39019896805012z" fill="#23171b" stroke="#FFFFFF" stroke-width="2" id="Sex-Positive"/><path d="M-98.55140316520443,-241.53936799042597L-239.25192288542075,-209.05609351219297L-240.60513291560565,-193.58883209055833L-239.44545637298617,-179.21892351761272L-237.2762551328327,-169.1645248866619L-235.40272808645867,-164.0284547286244L-94.13669537927557,-166.21216672307588L-94.33410074227156,-235.0109721752509z" fill="#23171b" stroke="#FFFFFF" stroke-width="2" id="Heart Eyes"/><path d="M296.6802759358643,18.43362808328129L275.9273391457293,-16.105058815057475L250.68986855992966,-21.615361666760748L216.43303128754766,-3.4134780637600586L240.08681327482637,77.27928269732286L244.70157903859905,78.22827884241191z" fill="#e52727" stroke="#FFFFFF" stroke-width="2" id="Love Hurts"/><path d="M-208.5970414712886,66.15487818861095L-206.39244813127394,61.380259392592386L-210.14740403197558,65.4288647027556z" fill="#23171b" stroke="#FFFFFF" stroke-width="2" id="I Love You Forever"/><path d="M-240.60513291560565,-193.58883209055833L-241.86092601251354,-179.23505131145453L-239.44545637298617,-179.21892351761272z" fill="#e52727" stroke="#FFFFFF" stroke-width="2" id="When I'm Ready"/><path d="M111.35465523682757,-290L-239.25192288542075,-209.05609351219297L-270.61308414522875,149.4036199627459L60.61123039179171,290L296.6802759358643,18.433628083281235z" fill="none" stroke="#FFFFFF" stroke-width="4"/></g><g id="labels"><text text-anchor="middle" dominant-baseline="text-before-edge" transform="translate(103.15088988785844,58.67509212033629)"><tspan x="3" y="0.2em" style="font-family: Arial, sans-serif; font-size: 10px; fill: black; font-weight: normal;">Fifty Shades of Grey</tspan></text><text text-anchor="middle" dominant-baseline="text-before-edge" transform="translate(-249.0278784894233,8.194806814403972)"><tspan x="3" y="0.2em" style="font-family: Arial, sans-serif; font-size: 10px; fill: black; font-weight: normal;">Old Fashioned</tspan></text><text text-anchor="middle" dominant-baseline="text-before-edge" transform="translate(59.12028399370811,-208.59881629923376)"><tspan x="3" y="0.2em" style="font-family: Arial, sans-serif; font-size: 10px; fill: black; font-weight: normal;">The Last Five Years</tspan></text><text text-anchor="middle" dominant-baseline="text-before-edge" transform="translate(-260.83463260512497,55.953114875003166)"><tspan x="3" y="0.2em" style="font-family: Arial, sans-serif; font-size: 10px; fill: black; font-weight: normal;">Boy Meets Girl</tspan></text><text text-anchor="middle" dominant-baseline="text-before-edge" transform="translate(-240.38376133535306,-184.543754648756)"><tspan x="3" y="0.2em" style="font-family: Arial, sans-serif; font-size: 10px; fill: black; font-weight: normal;">3 Nights in the Desert</tspan></text><text text-anchor="middle" dominant-baseline="text-before-edge" transform="translate(127.01981680379738,-168.17911769841913)"><tspan x="3" y="0.2em" style="font-family: Arial, sans-serif; font-size: 10px; fill: black; font-weight: normal;">How to Be Single</tspan></text><text text-anchor="middle" dominant-baseline="text-before-edge" transform="translate(81.18323754124596,-256.3945489981138)"><tspan x="3" y="0.2em" style="font-family: Arial, sans-serif; font-size: 10px; fill: black; font-weight: normal;">The Choice</tspan></text><text text-anchor="middle" dominant-baseline="text-before-edge" transform="translate(-67.08218802742404,204.42039943650843)"><tspan x="3" y="0.2em" style="font-family: Arial, sans-serif; font-size: 10px; fill: black; font-weight: normal;">Pride and Prejudice and Zombies</tspan></text><text text-anchor="middle" dominant-baseline="text-before-edge" transform="translate(-28.069786922758027,36.75777130638855)"><tspan x="3" y="0.2em" style="font-family: Arial, sans-serif; font-size: 10px; fill: black; font-weight: normal;">Touched with Fire</tspan></text><text text-anchor="middle" dominant-baseline="text-before-edge" transform="translate(261.4730605608122,-37.605572571500446)"><tspan x="3" y="0.2em" style="font-family: Arial, sans-serif; font-size: 10px; fill: black; font-weight: normal;">Tumbledown</tspan></text><text text-anchor="middle" dominant-baseline="text-before-edge" transform="translate(-239.76363109646132,-172.6940879376033)"><tspan x="3" y="0.2em" style="font-family: Arial, sans-serif; font-size: 10px; fill: black; font-weight: normal;">Until Forever</tspan></text><text text-anchor="middle" dominant-baseline="text-before-edge" transform="translate(-93.78832508199564,-244.38104748763058)"><tspan x="3" y="0.2em" style="font-family: Arial, sans-serif; font-size: 10px; fill: black; font-weight: normal;">Already Tomorrow in Hong Kong</tspan></text><text text-anchor="middle" dominant-baseline="text-before-edge" transform="translate(207.8714116085194,-133.0572802795475)"><tspan x="3" y="0.2em" style="font-family: Arial, sans-serif; font-size: 10px; fill: black; font-weight: normal;">Providence</tspan></text><text text-anchor="middle" dominant-baseline="text-before-edge" transform="translate(-157.39971299278184,-75.54176847463071)"><tspan x="3" y="0.2em" style="font-family: Arial, sans-serif; font-size: 10px; fill: black; font-weight: normal;">Fifty Shades Darker</tspan></text><text text-anchor="middle" dominant-baseline="text-before-edge" transform="translate(-19.23327913072206,-80.38857684813547)"><tspan x="3" y="0.2em" style="font-family: Arial, sans-serif; font-size: 10px; fill: black; font-weight: normal;">Rings</tspan></text><text text-anchor="middle" dominant-baseline="text-before-edge" transform="translate(150.39419787265211,-82.28805760958497)"><tspan x="3" y="0.2em" style="font-family: Arial, sans-serif; font-size: 10px; fill: black; font-weight: normal;">The Space Between Us</tspan></text><text text-anchor="middle" dominant-baseline="text-before-edge" transform="translate(-112.38120108373722,103.5735904961549)"><tspan x="3" y="0.2em" style="font-family: Arial, sans-serif; font-size: 10px; fill: black; font-weight: normal;">Fifty Shades Freed</tspan></text><text text-anchor="middle" dominant-baseline="text-before-edge" transform="translate(-253.57813766572764,-9.953429357821044)"><tspan x="3" y="0.2em" style="font-family: Arial, sans-serif; font-size: 10px; fill: black; font-weight: normal;">But Deliver Us from Evil</tspan></text><text text-anchor="middle" dominant-baseline="text-before-edge" transform="translate(-39.9830786374591,237.2426129547008)"><tspan x="3" y="0.2em" style="font-family: Arial, sans-serif; font-size: 10px; fill: black; font-weight: normal;">The Female Brain</tspan></text><text text-anchor="middle" dominant-baseline="text-before-edge" transform="translate(-19.78446490530111,-202.42591503470032)"><tspan x="3" y="0.2em" style="font-family: Arial, sans-serif; font-size: 10px; fill: black; font-weight: normal;">What Men Want</tspan></text><text text-anchor="middle" dominant-baseline="text-before-edge" transform="translate(33.57142763242827,211.7220485099962)"><tspan x="3" y="0.2em" style="font-family: Arial, sans-serif; font-size: 10px; fill: black; font-weight: normal;">Isn't It Romantic</tspan></text><text text-anchor="middle" dominant-baseline="text-before-edge" transform="translate(59.961042765366486,-103.09040607501726)"><tspan x="3" y="0.2em" style="font-family: Arial, sans-serif; font-size: 10px; fill: black; font-weight: normal;">Happy Death Day 2U</tspan></text><text text-anchor="middle" dominant-baseline="text-before-edge" transform="translate(242.38272959929822,72.72879572408695)"><tspan x="3" y="0.2em" style="font-family: Arial, sans-serif; font-size: 10px; fill: black; font-weight: normal;">Piercing</tspan></text><text text-anchor="middle" dominant-baseline="text-before-edge" transform="translate(240.75368618330722,76.17175290027059)"><tspan x="3" y="0.2em" style="font-family: Arial, sans-serif; font-size: 10px; fill: black; font-weight: normal;">Under the Eiffel Tower</tspan></text><text text-anchor="middle" dominant-baseline="text-before-edge" transform="translate(-234.1315792992457,112.08545180380393)"><tspan x="3" y="0.2em" style="font-family: Arial, sans-serif; font-size: 10px; fill: black; font-weight: normal;">The Photograph</tspan></text><text text-anchor="middle" dominant-baseline="text-before-edge" transform="translate(-231.5112996724191,38.18051205840412)"><tspan x="3" y="0.2em" style="font-family: Arial, sans-serif; font-size: 10px; fill: black; font-weight: normal;">Downhill</tspan></text><text text-anchor="middle" dominant-baseline="text-before-edge" transform="translate(-32.108515667223166,30.888106158900143)"><tspan x="3" y="0.2em" style="font-family: Arial, sans-serif; font-size: 10px; fill: black; font-weight: normal;">First Lady</tspan></text><text text-anchor="middle" dominant-baseline="text-before-edge" transform="translate(-261.9582078408701,60.78778771655129)"><tspan x="3" y="0.2em" style="font-family: Arial, sans-serif; font-size: 10px; fill: black; font-weight: normal;">Olympic Dreams</tspan></text><text text-anchor="middle" dominant-baseline="text-before-edge" transform="translate(129.02826017588052,202.39082306545458)"><tspan x="3" y="0.2em" style="font-family: Arial, sans-serif; font-size: 10px; fill: black; font-weight: normal;">Little Fish</tspan></text><text text-anchor="middle" dominant-baseline="text-before-edge" transform="translate(211.67644784131147,-66.04636521570956)"><tspan x="3" y="0.2em" style="font-family: Arial, sans-serif; font-size: 10px; fill: black; font-weight: normal;">Marry Me</tspan></text><text text-anchor="middle" dominant-baseline="text-before-edge" transform="translate(-39.40472109738556,-2.716379370155169)"><tspan x="3" y="0.2em" style="font-family: Arial, sans-serif; font-size: 10px; fill: black; font-weight: normal;">Lisa Frankenstein</tspan></text><text text-anchor="middle" dominant-baseline="text-before-edge" transform="translate(263.9757007508402,-29.562890532939683)"><tspan x="3" y="0.2em" style="font-family: Arial, sans-serif; font-size: 10px; fill: black; font-weight: normal;">Scrambled</tspan></text><text text-anchor="middle" dominant-baseline="text-before-edge" transform="translate(-90.31880224535439,-247.2510528513961)"><tspan x="3" y="0.2em" style="font-family: Arial, sans-serif; font-size: 10px; fill: black; font-weight: normal;">Inheritance to Love</tspan></text><text text-anchor="middle" dominant-baseline="text-before-edge" transform="translate(-75.4210183024735,2.8626039418285103)"><tspan x="3" y="0.2em" style="font-family: Arial, sans-serif; font-size: 10px; fill: black; font-weight: normal;">Sex-Positive</tspan></text><text text-anchor="middle" dominant-baseline="text-before-edge" transform="translate(-159.3549170372234,-202.02544360811763)"><tspan x="3" y="0.2em" style="font-family: Arial, sans-serif; font-size: 10px; fill: black; font-weight: normal;">Heart Eyes</tspan></text><text text-anchor="middle" dominant-baseline="text-before-edge" transform="translate(254.38960975275955,14.341899477300483)"><tspan x="3" y="0.2em" style="font-family: Arial, sans-serif; font-size: 10px; fill: black; font-weight: normal;">Love Hurts</tspan></text><text text-anchor="middle" dominant-baseline="text-before-edge" transform="translate(-209.20918702829374,58.86503007277976)"><tspan x="3" y="0.2em" style="font-family: Arial, sans-serif; font-size: 10px; fill: black; font-weight: normal;">I Love You Forever</tspan></text><text text-anchor="middle" dominant-baseline="text-before-edge" transform="translate(-240.31066008027204,-195.49217474834856)"><tspan x="3" y="0.2em" style="font-family: Arial, sans-serif; font-size: 10px; fill: black; font-weight: normal;">When I'm Ready</tspan></text></g></g></svg>