<?xml version="1.0" encoding="UTF-8"?>
<svg xmlns="http://www.w3.org/2000/svg" xmlns:xlink="http://www.w3.org/1999/xlink" version="1.1" viewBox="0 0 720 360">
  <!-- Generator: Adobe Illustrator 29.3.1, SVG Export Plug-In . SVG Version: 2.1.0 Build 151)  -->
  <defs>
    <style>
      .st0, .st1 {
        fill: none;
      }

      .st2 {
        font-size: 11px;
      }

      .st2, .st3 {
        font-family: ArialMT, Arial;
        isolation: isolate;
      }

      .st4 {
        font-family: MyriadPro-Regular, 'Myriad Pro';
        font-size: 15px;
      }

      .st5 {
        stroke: #000;
      }

      .st5, .st6 {
        fill-opacity: .7;
        stroke-linecap: round;
        stroke-opacity: .7;
        stroke-width: .7px;
      }

      .st5, .st6, .st1 {
        stroke-linejoin: round;
      }

      .st6 {
        fill: red;
        stroke: red;
      }

      .st3 {
        fill: #4d4d4d;
        font-size: 8.8px;
      }

      .st1 {
        stroke: #ebebeb;
        stroke-width: 1.1px;
      }
    </style>
  </defs>
  <g id="Layer_1">
    <rect class="st0" width="720" height="360"/>
    <rect class="st0" width="720" height="360"/>
    <rect class="st0" x="8.2" y="39.1" width="706.3" height="289.1"/>
    <line class="st1" x1="49.8" y1="328.3" x2="49.8" y2="39.1"/>
    <line class="st1" x1="119" y1="328.3" x2="119" y2="39.1"/>
    <line class="st1" x1="188.3" y1="328.3" x2="188.3" y2="39.1"/>
    <line class="st1" x1="257.5" y1="328.3" x2="257.5" y2="39.1"/>
    <line class="st1" x1="326.8" y1="328.3" x2="326.8" y2="39.1"/>
    <line class="st1" x1="396" y1="328.3" x2="396" y2="39.1"/>
    <line class="st1" x1="465.2" y1="328.3" x2="465.2" y2="39.1"/>
    <line class="st1" x1="534.5" y1="328.3" x2="534.5" y2="39.1"/>
    <line class="st1" x1="603.7" y1="328.3" x2="603.7" y2="39.1"/>
    <line class="st1" x1="673" y1="328.3" x2="673" y2="39.1"/>
    <circle class="st6" cx="37.6" cy="200.9" r="3.6"/>
    <circle class="st6" cx="36" cy="171.2" r="3.6"/>
    <circle class="st6" cx="54.2" cy="142.3" r="3.6"/>
    <circle class="st6" cx="62.2" cy="190.6" r="3.6"/>
    <circle class="st6" cx="49.8" cy="248.7" r="3.6"/>
    <circle class="st5" cx="119" cy="293.2" r="7.8"/>
    <circle class="st6" cx="109" cy="171.4" r="3.6"/>
    <circle class="st6" cx="139.8" cy="90.1" r="3.6"/>
    <circle class="st6" cx="106" cy="52.3" r="3.6"/>
    <circle class="st6" cx="112.1" cy="95" r="3.6"/>
    <circle class="st6" cx="113" cy="248.6" r="3.6"/>
    <circle class="st6" cx="126.2" cy="201.4" r="3.6"/>
    <circle class="st6" cx="125.6" cy="101.7" r="3.6"/>
    <circle class="st6" cx="188.3" cy="266.1" r="3.6"/>
    <circle class="st6" cx="201.9" cy="59.6" r="3.6"/>
    <circle class="st6" cx="174.4" cy="182.8" r="3.6"/>
    <circle class="st6" cx="257.5" cy="295.5" r="3.6"/>
    <circle class="st5" cx="269.1" cy="122.8" r="7.8"/>
    <circle class="st6" cx="244.4" cy="248.3" r="3.6"/>
    <circle class="st5" cx="306.3" cy="190.7" r="7.8"/>
    <circle class="st6" cx="319.7" cy="239.1" r="3.6"/>
    <circle class="st6" cx="330.3" cy="100.4" r="3.6"/>
    <circle class="st6" cx="340.4" cy="194.8" r="3.6"/>
    <circle class="st6" cx="326.8" cy="285.5" r="3.6"/>
    <circle class="st6" cx="396" cy="147.8" r="3.6"/>
    <circle class="st6" cx="408.6" cy="88.4" r="3.6"/>
    <circle class="st6" cx="377.5" cy="71.3" r="3.6"/>
    <circle class="st6" cx="385.6" cy="114.5" r="3.6"/>
    <circle class="st6" cx="465.2" cy="287" r="3.6"/>
    <circle class="st6" cx="534.5" cy="315.1" r="3.6"/>
    <circle class="st5" cx="593.9" cy="247.3" r="7.8"/>
    <circle class="st5" cx="603.7" cy="298.4" r="7.8"/>
    <circle class="st6" cx="585.5" cy="162.2" r="3.6"/>
    <circle class="st5" cx="616" cy="192.4" r="7.8"/>
    <circle class="st5" cx="658.2" cy="111.4" r="7.8"/>
    <circle class="st6" cx="673" cy="301.3" r="3.6"/>
    <circle class="st5" cx="660.5" cy="259" r="7.8"/>
    <circle class="st6" cx="683" cy="188" r="3.6"/>
    <rect class="st0" width="720" height="360"/>
    <text class="st3" transform="translate(40 339.5)"><tspan x="0" y="0">2015</tspan></text>
    <text class="st3" transform="translate(109.2 339.5)"><tspan x="0" y="0">2016</tspan></text>
    <text class="st3" transform="translate(178.5 339.5)"><tspan x="0" y="0">2017</tspan></text>
    <text class="st3" transform="translate(247.7 339.5)"><tspan x="0" y="0">2018</tspan></text>
    <text class="st3" transform="translate(317 339.5)"><tspan x="0" y="0">2019</tspan></text>
    <text class="st3" transform="translate(386.2 339.5)"><tspan x="0" y="0">2020</tspan></text>
    <text class="st3" transform="translate(455.5 339.5)"><tspan x="0" y="0">2021</tspan></text>
    <text class="st3" transform="translate(524.7 339.5)"><tspan x="0" y="0">2022</tspan></text>
    <text class="st3" transform="translate(593.9 339.5)"><tspan x="0" y="0">2024</tspan></text>
    <text class="st3" transform="translate(663.2 339.5)"><tspan x="0" y="0">2025</tspan></text>
    <text class="st2" transform="translate(350.3 352.1)"><tspan x="0" y="0">Year</tspan></text>
  </g>
  <g id="ai2html-settings">
    <text id="ai2html-settings1" data-name="ai2html-settings" class="st4" transform="translate(-450 10.6)"><tspan x="0" y="0">ai2html-settings</tspan><tspan x="0" y="19">settings_version: 0.121.1</tspan><tspan x="0" y="38">image_format: auto</tspan><tspan x="0" y="57">responsiveness: fixed</tspan><tspan x="0" y="76">include_resizer_script: false</tspan><tspan x="0" y="95">use_lazy_loader: false</tspan><tspan x="0" y="114">output: one-file</tspan><tspan x="0" y="133">html_output_path: ai2html-output/</tspan><tspan x="0" y="152">image_output_path: ai2html-output/</tspan><tspan x="0" y="171">image_source_path: </tspan><tspan x="0" y="190">local_preview_template: </tspan><tspan x="0" y="209">png_number_of_colors: 128</tspan><tspan x="0" y="228">jpg_quality: 60</tspan><tspan x="0" y="247">headline: </tspan><tspan x="0" y="266">leadin: </tspan><tspan x="0" y="285">notes: </tspan><tspan x="0" y="304">sources: </tspan><tspan x="0" y="323">credit: </tspan></text>
  </g>
</svg>